<svg width="454" height="430" viewBox="0 0 454 430" fill="none" xmlns="http://www.w3.org/2000/svg">
<path opacity="0.1" d="M425.333 184.384C425.333 184.384 363.938 34.6393 251.701 5.66881C139.465 -23.3017 92.3637 65.1447 75.1925 126.539C58.0212 187.838 -5.38771 269.089 0.368013 324.824C5.83595 377.873 52.2655 402.91 95.7212 413.654C150.88 427.372 213.522 428.331 268.873 417.012C282.015 414.326 294.965 410.68 307.82 406.459C333.817 398.018 359.334 391.399 385.714 384.396C435.789 371.062 455.646 317.246 449.986 265.732C446.725 236.665 436.173 210.765 425.333 184.384Z" fill="#2547C1"/>
<path d="M391.47 20.3459H213.522V266.691H391.47V20.3459Z" stroke="#263238" stroke-miterlimit="10" stroke-linecap="round" stroke-linejoin="round"/>
<path d="M302.544 20.5378V267.554" stroke="#263238" stroke-miterlimit="10" stroke-linecap="round" stroke-linejoin="round"/>
<path d="M391.662 144.094H213.426" stroke="#263238" stroke-miterlimit="10" stroke-linecap="round" stroke-linejoin="round"/>
<path d="M391.662 82.22H213.426" stroke="#263238" stroke-miterlimit="10" stroke-linecap="round" stroke-linejoin="round"/>
<path d="M391.662 205.968H213.426" stroke="#263238" stroke-miterlimit="10" stroke-linecap="round" stroke-linejoin="round"/>
<path d="M359.238 110.711L341.875 127.402" stroke="#263238" stroke-miterlimit="10" stroke-linecap="round" stroke-linejoin="round"/>
<path d="M385.042 85.9612L364.322 105.818" stroke="#263238" stroke-miterlimit="10" stroke-linecap="round" stroke-linejoin="round"/>
<path d="M340.627 119.44L335.16 124.716" stroke="#263238" stroke-miterlimit="10" stroke-linecap="round" stroke-linejoin="round"/>
<path d="M364.322 96.7052L344.369 115.795" stroke="#263238" stroke-miterlimit="10" stroke-linecap="round" stroke-linejoin="round"/>
<path d="M263.021 54.3047L245.658 70.9963" stroke="#263238" stroke-miterlimit="10" stroke-linecap="round" stroke-linejoin="round"/>
<path d="M288.826 29.5551L268.105 49.4123" stroke="#263238" stroke-miterlimit="10" stroke-linecap="round" stroke-linejoin="round"/>
<path d="M244.411 63.0343L238.847 68.3104" stroke="#263238" stroke-miterlimit="10" stroke-linecap="round" stroke-linejoin="round"/>
<path d="M268.009 40.2991L248.152 59.3889" stroke="#263238" stroke-miterlimit="10" stroke-linecap="round" stroke-linejoin="round"/>
<path d="M355.113 176.326L337.75 192.922" stroke="#263238" stroke-miterlimit="10" stroke-linecap="round" stroke-linejoin="round"/>
<path d="M380.918 151.481L360.101 171.434" stroke="#263238" stroke-miterlimit="10" stroke-linecap="round" stroke-linejoin="round"/>
<path d="M336.502 185.056L330.939 190.332" stroke="#263238" stroke-miterlimit="10" stroke-linecap="round" stroke-linejoin="round"/>
<path d="M360.101 162.225L340.244 181.314" stroke="#263238" stroke-miterlimit="10" stroke-linecap="round" stroke-linejoin="round"/>
<path d="M362.883 243.476L362.116 237.049C362.116 237.049 358.662 237.241 357.415 234.267C356.648 232.444 355.784 228.799 357.031 227.072C358.662 224.674 362.116 224.962 363.171 227.936C364.034 230.526 364.514 231.677 364.514 231.677C364.322 227.936 361.444 212.683 369.982 214.985C373.435 215.945 374.394 219.302 374.586 221.892C374.778 224.578 374.394 231.389 374.394 231.389C374.394 231.389 376.697 231.677 376.889 227.84C377.08 224.003 380.726 222.276 382.357 224.099C383.987 225.921 384.755 232.349 382.932 234.363C381.109 236.378 375.45 237.049 375.45 237.049L375.833 243.476H362.883Z" fill="#2FA36B" stroke="#263238" stroke-miterlimit="10" stroke-linecap="round" stroke-linejoin="round"/>
<path d="M367.775 216.041C367.775 216.041 366.336 217.288 366.72 221.701C367.104 226.113 367.104 233.883 367.104 233.883" stroke="#263238" stroke-width="0.5" stroke-miterlimit="10" stroke-linecap="round" stroke-linejoin="round"/>
<path d="M371.516 219.015C371.516 219.015 373.147 218.727 372.668 222.756C372.188 226.785 372.668 232.732 372.668 232.732" stroke="#263238" stroke-width="0.5" stroke-miterlimit="10" stroke-linecap="round" stroke-linejoin="round"/>
<path d="M359.429 227.552C359.429 227.552 357.799 227.936 358.566 230.622C359.333 233.308 359.621 235.418 361.348 235.802C363.171 236.186 363.746 236.186 363.746 236.186L364.034 238.968" stroke="#263238" stroke-width="0.5" stroke-miterlimit="10" stroke-linecap="round" stroke-linejoin="round"/>
<path d="M375.641 235.61C375.641 235.61 380.917 235.706 381.973 233.596C383.028 231.389 382.356 227.648 382.356 227.648" stroke="#263238" stroke-width="0.5" stroke-miterlimit="10" stroke-linecap="round" stroke-linejoin="round"/>
<path d="M361.636 228.224C361.636 228.511 361.444 228.703 361.156 228.703C360.868 228.703 360.677 228.511 360.677 228.224C360.677 227.936 360.868 227.744 361.156 227.744C361.444 227.744 361.636 227.936 361.636 228.224Z" stroke="#263238" stroke-width="0.5" stroke-miterlimit="10" stroke-linecap="round" stroke-linejoin="round"/>
<path d="M362.691 233.883C362.956 233.883 363.171 233.669 363.171 233.404C363.171 233.139 362.956 232.924 362.691 232.924C362.426 232.924 362.211 233.139 362.211 233.404C362.211 233.669 362.426 233.883 362.691 233.883Z" stroke="#263238" stroke-width="0.5" stroke-miterlimit="10" stroke-linecap="round" stroke-linejoin="round"/>
<path d="M360.485 231.773C360.75 231.773 360.964 231.558 360.964 231.293C360.964 231.028 360.75 230.814 360.485 230.814C360.22 230.814 360.005 231.028 360.005 231.293C360.005 231.558 360.22 231.773 360.485 231.773Z" stroke="#263238" stroke-width="0.5" stroke-miterlimit="10" stroke-linecap="round" stroke-linejoin="round"/>
<path d="M369.598 226.401C369.863 226.401 370.078 226.186 370.078 225.921C370.078 225.656 369.863 225.442 369.598 225.442C369.333 225.442 369.118 225.656 369.118 225.921C369.118 226.186 369.333 226.401 369.598 226.401Z" stroke="#263238" stroke-width="0.5" stroke-miterlimit="10" stroke-linecap="round" stroke-linejoin="round"/>
<path d="M365.377 222.084C365.642 222.084 365.857 221.869 365.857 221.605C365.857 221.34 365.642 221.125 365.377 221.125C365.112 221.125 364.897 221.34 364.897 221.605C364.897 221.869 365.112 222.084 365.377 222.084Z" stroke="#263238" stroke-width="0.5" stroke-miterlimit="10" stroke-linecap="round" stroke-linejoin="round"/>
<path d="M371.517 237.241C371.517 237.529 371.325 237.721 371.037 237.721C370.749 237.721 370.557 237.529 370.557 237.241C370.557 236.953 370.749 236.761 371.037 236.761C371.325 236.761 371.517 237.049 371.517 237.241Z" stroke="#263238" stroke-width="0.5" stroke-miterlimit="10" stroke-linecap="round" stroke-linejoin="round"/>
<path d="M366.624 236.665C366.624 236.953 366.432 237.145 366.144 237.145C365.857 237.145 365.665 236.953 365.665 236.665C365.665 236.378 365.857 236.186 366.144 236.186C366.432 236.186 366.624 236.378 366.624 236.665Z" stroke="#263238" stroke-width="0.5" stroke-miterlimit="10" stroke-linecap="round" stroke-linejoin="round"/>
<path d="M370.365 217.959C370.63 217.959 370.845 217.745 370.845 217.48C370.845 217.215 370.63 217 370.365 217C370.1 217 369.886 217.215 369.886 217.48C369.886 217.745 370.1 217.959 370.365 217.959Z" stroke="#263238" stroke-width="0.5" stroke-miterlimit="10" stroke-linecap="round" stroke-linejoin="round"/>
<path d="M379.958 226.017C379.958 226.305 379.766 226.497 379.479 226.497C379.191 226.497 378.999 226.305 378.999 226.017C378.999 225.73 379.191 225.538 379.479 225.538C379.766 225.538 379.958 225.825 379.958 226.017Z" stroke="#263238" stroke-width="0.5" stroke-miterlimit="10" stroke-linecap="round" stroke-linejoin="round"/>
<path d="M378.327 232.636C378.592 232.636 378.807 232.422 378.807 232.157C378.807 231.892 378.592 231.677 378.327 231.677C378.062 231.677 377.848 231.892 377.848 232.157C377.848 232.422 378.062 232.636 378.327 232.636Z" stroke="#263238" stroke-width="0.5" stroke-miterlimit="10" stroke-linecap="round" stroke-linejoin="round"/>
<path d="M370.365 232.445C370.63 232.445 370.845 232.23 370.845 231.965C370.845 231.7 370.63 231.485 370.365 231.485C370.1 231.485 369.886 231.7 369.886 231.965C369.886 232.23 370.1 232.445 370.365 232.445Z" stroke="#263238" stroke-width="0.5" stroke-miterlimit="10" stroke-linecap="round" stroke-linejoin="round"/>
<path d="M380.63 239.351H357.511L359.813 258.345H378.327L380.63 239.351Z" fill="white" stroke="#263238" stroke-miterlimit="10" stroke-linecap="round" stroke-linejoin="round"/>
<path d="M36.4372 204.433L54.184 373.94" stroke="#263238" stroke-width="2" stroke-miterlimit="10"/>
<path d="M51.3061 341.516L43.2481 333.074" stroke="#263238" stroke-width="2" stroke-miterlimit="10"/>
<path d="M45.7422 335.568C45.7422 335.568 45.9341 331.827 42.5766 328.757C40.5621 326.934 29.7221 322.33 28.6669 326.167C27.5158 330.388 38.5476 338.542 45.7422 335.568Z" fill="#25C16C" stroke="#263238" stroke-miterlimit="10"/>
<path d="M45.7424 335.568L35.3821 329.141" stroke="#263238" stroke-width="0.5" stroke-miterlimit="10"/>
<path d="M53.3207 360.797L45.2626 352.356" stroke="#263238" stroke-width="2" stroke-miterlimit="10"/>
<path d="M47.7568 354.85C47.7568 354.85 47.9487 351.108 44.5912 348.039C42.5767 346.216 31.7367 341.612 30.6815 345.449C29.5303 349.67 40.5622 357.824 47.7568 354.85Z" fill="#25C16C" stroke="#263238" stroke-miterlimit="10"/>
<path d="M47.7569 354.85L37.3966 348.422" stroke="#263238" stroke-width="0.5" stroke-miterlimit="10"/>
<path d="M46.4138 294.51L38.3558 285.973" stroke="#263238" stroke-width="2" stroke-miterlimit="10"/>
<path d="M40.8499 288.563C40.8499 288.563 41.0418 284.822 37.6842 281.752C35.6697 279.929 24.8298 275.325 23.7746 279.162C22.6234 283.287 33.6552 291.441 40.8499 288.563Z" fill="#25C16C" stroke="#263238" stroke-miterlimit="10"/>
<path d="M40.8501 288.563L30.4897 282.136" stroke="#263238" stroke-width="0.5" stroke-miterlimit="10"/>
<path d="M48.4282 313.792L40.3702 305.255" stroke="#263238" stroke-width="2" stroke-miterlimit="10"/>
<path d="M42.8644 307.845C42.8644 307.845 43.0562 304.103 39.6987 301.034C37.6842 299.211 26.8443 294.606 25.789 298.444C24.6379 302.569 35.6697 310.722 42.8644 307.845Z" fill="#25C16C" stroke="#263238" stroke-miterlimit="10"/>
<path d="M42.8645 307.845L32.5042 301.417" stroke="#263238" stroke-width="0.5" stroke-miterlimit="10"/>
<path d="M43.1522 263.142L35.0942 254.7" stroke="#263238" stroke-width="2" stroke-miterlimit="10"/>
<path d="M37.5883 257.194C37.5883 257.194 37.7802 253.453 34.4227 250.383C32.4082 248.561 21.5682 243.956 20.513 247.793C19.3618 252.014 30.3936 260.168 37.5883 257.194Z" fill="#25C16C" stroke="#263238" stroke-miterlimit="10"/>
<path d="M37.5883 257.194L27.228 250.767" stroke="#263238" stroke-width="0.5" stroke-miterlimit="10"/>
<path d="M39.8907 231.677L31.8326 223.235" stroke="#263238" stroke-width="2" stroke-miterlimit="10"/>
<path d="M34.2309 225.73C34.2309 225.73 34.4228 221.988 31.0653 218.919C29.0508 217.096 18.2108 212.491 17.1556 216.329C16.0044 220.549 27.1322 228.703 34.2309 225.73Z" fill="#25C16C" stroke="#263238" stroke-miterlimit="10"/>
<path d="M34.2308 225.73L23.9664 219.302" stroke="#263238" stroke-width="0.5" stroke-miterlimit="10"/>
<path d="M49.9633 330.1L56.1028 320.124" stroke="#263238" stroke-width="2" stroke-miterlimit="10"/>
<path d="M54.1841 323.193C54.1841 323.193 53.2248 319.548 55.9108 315.903C57.5416 313.696 67.2304 306.981 68.9572 310.531C70.9717 314.272 61.7625 324.536 54.1841 323.193Z" fill="#25C16C" stroke="#263238" stroke-miterlimit="10"/>
<path d="M54.1841 323.193L63.4892 314.272" stroke="#263238" stroke-width="0.5" stroke-miterlimit="10"/>
<path d="M44.6871 279.354L50.7306 269.377" stroke="#263238" stroke-width="2" stroke-miterlimit="10"/>
<path d="M48.908 272.447C48.908 272.447 47.9487 268.802 50.6347 265.156C52.2655 262.95 61.9543 256.235 63.681 259.784C65.6955 263.525 56.4864 273.79 48.908 272.447Z" fill="#25C16C" stroke="#263238" stroke-miterlimit="10"/>
<path d="M48.908 272.447L58.2131 263.526" stroke="#263238" stroke-width="0.5" stroke-miterlimit="10"/>
<path d="M42.3849 257.098L48.4284 247.122" stroke="#263238" stroke-width="2" stroke-miterlimit="10"/>
<path d="M46.6057 250.095C46.6057 250.095 45.6464 246.45 48.3324 242.805C49.9632 240.598 59.652 233.883 61.3787 237.433C63.2973 241.27 54.1841 251.534 46.6057 250.095Z" fill="#25C16C" stroke="#263238" stroke-miterlimit="10"/>
<path d="M46.6057 250.095L55.9108 241.27" stroke="#263238" stroke-width="0.5" stroke-miterlimit="10"/>
<path d="M38.9312 224.387L45.0706 214.41" stroke="#263238" stroke-width="2" stroke-miterlimit="10"/>
<path d="M43.1521 217.384C43.1521 217.384 42.1929 213.738 44.8789 210.093C46.5096 207.887 56.1985 201.172 57.9252 204.721C59.9397 208.558 50.7305 218.823 43.1521 217.384Z" fill="#25C16C" stroke="#263238" stroke-miterlimit="10"/>
<path d="M43.1522 217.384L52.4573 208.558" stroke="#263238" stroke-width="0.5" stroke-miterlimit="10"/>
<path d="M36.3412 203.474C36.3412 203.474 35.3819 199.829 38.0679 196.183C39.6987 193.977 49.3875 187.262 51.1142 190.811C53.1287 194.553 43.9195 204.817 36.3412 203.474Z" fill="#25C16C" stroke="#263238" stroke-miterlimit="10"/>
<path d="M36.3412 203.474L45.6463 194.649" stroke="#263238" stroke-width="0.5" stroke-miterlimit="10"/>
<path d="M36.8209 203.858C36.8209 203.858 33.0797 204.433 29.7222 201.364C27.7077 199.541 22.0479 189.181 25.6932 187.742C29.8181 186.303 39.0273 196.471 36.8209 203.858Z" fill="#25C16C" stroke="#263238" stroke-miterlimit="10"/>
<path d="M36.8209 203.858L29.0507 193.689" stroke="#263238" stroke-width="0.5" stroke-miterlimit="10"/>
<path d="M83.1545 227.744L65.5036 397.346" stroke="#263238" stroke-width="2" stroke-miterlimit="10"/>
<path d="M69.4366 365.018L63.2972 355.042" stroke="#263238" stroke-width="2" stroke-miterlimit="10"/>
<path d="M65.2159 358.015C65.2159 358.015 66.1752 354.37 63.4892 350.725C61.8584 348.518 52.1696 341.803 50.4428 345.353C48.4283 349.19 57.6375 359.454 65.2159 358.015Z" fill="#25C16C" stroke="#263238" stroke-miterlimit="10"/>
<path d="M65.2158 358.015L56.3903 349.574" stroke="#263238" stroke-width="0.5" stroke-miterlimit="10"/>
<path d="M74.3291 317.917L68.1896 307.941" stroke="#263238" stroke-width="2" stroke-miterlimit="10"/>
<path d="M70.1082 311.01C70.1082 311.01 71.0675 307.365 68.3815 303.72C66.7507 301.513 57.0619 294.798 55.3352 298.348C53.3207 302.089 62.5298 312.353 70.1082 311.01Z" fill="#25C16C" stroke="#263238" stroke-miterlimit="10"/>
<path d="M70.108 311.01L61.2826 302.568" stroke="#263238" stroke-width="0.5" stroke-miterlimit="10"/>
<path d="M72.3144 337.199L66.175 327.222" stroke="#263238" stroke-width="2" stroke-miterlimit="10"/>
<path d="M68.0936 330.292C68.0936 330.292 69.0529 326.647 66.3669 323.001C64.7361 320.795 55.0473 314.08 53.3206 317.629C51.3061 321.371 60.5152 331.635 68.0936 330.292Z" fill="#25C16C" stroke="#263238" stroke-miterlimit="10"/>
<path d="M68.0936 330.292L59.2681 321.85" stroke="#263238" stroke-width="0.5" stroke-miterlimit="10"/>
<path d="M77.5907 286.644L71.4512 276.668" stroke="#263238" stroke-width="2" stroke-miterlimit="10"/>
<path d="M73.3697 279.642C73.3697 279.642 74.329 275.996 71.643 272.351C70.0122 270.145 60.3234 263.43 58.5967 266.979C56.5822 270.816 65.6954 281.081 73.3697 279.642Z" fill="#25C16C" stroke="#263238" stroke-miterlimit="10"/>
<path d="M73.3698 279.642L64.5443 271.2" stroke="#263238" stroke-width="0.5" stroke-miterlimit="10"/>
<path d="M80.8523 255.18L74.7128 245.203" stroke="#263238" stroke-width="2" stroke-miterlimit="10"/>
<path d="M76.6313 248.177C76.6313 248.177 77.5906 244.532 74.9046 240.886C73.2738 238.68 63.585 231.965 61.8583 235.514C59.8438 239.351 68.957 249.616 76.6313 248.177Z" fill="#25C16C" stroke="#263238" stroke-miterlimit="10"/>
<path d="M76.6314 248.177L67.8059 239.735" stroke="#263238" stroke-width="0.5" stroke-miterlimit="10"/>
<path d="M70.4918 353.507L78.4539 345.065" stroke="#263238" stroke-width="2" stroke-miterlimit="10"/>
<path d="M76.0556 347.559C76.0556 347.559 75.8637 343.818 79.2213 340.748C81.2358 338.925 92.0757 334.321 93.1309 338.158C94.2821 342.379 83.1543 350.533 76.0556 347.559Z" fill="#25C16C" stroke="#263238" stroke-miterlimit="10"/>
<path d="M76.0558 347.559L86.9917 340.844" stroke="#263238" stroke-width="0.5" stroke-miterlimit="10"/>
<path d="M75.7681 302.76L83.7302 294.319" stroke="#263238" stroke-width="2" stroke-miterlimit="10"/>
<path d="M81.3319 296.813C81.3319 296.813 81.14 293.072 84.4975 290.002C86.512 288.179 97.352 283.575 98.4072 287.412C99.5583 291.633 88.4306 299.787 81.3319 296.813Z" fill="#25C16C" stroke="#263238" stroke-miterlimit="10"/>
<path d="M81.3318 296.813L92.2677 290.098" stroke="#263238" stroke-width="0.5" stroke-miterlimit="10"/>
<path d="M78.0703 280.505L86.0323 272.063" stroke="#263238" stroke-width="2" stroke-miterlimit="10"/>
<path d="M83.6342 274.557C83.6342 274.557 83.4424 270.816 86.7999 267.746C88.8144 265.924 99.6543 261.319 100.71 265.156C101.861 269.281 90.733 277.435 83.6342 274.557Z" fill="#25C16C" stroke="#263238" stroke-miterlimit="10"/>
<path d="M83.6342 274.557L94.5701 267.746" stroke="#263238" stroke-width="0.5" stroke-miterlimit="10"/>
<path d="M81.4276 247.793L89.4856 239.351" stroke="#263238" stroke-width="2" stroke-miterlimit="10"/>
<path d="M86.9916 241.846C86.9916 241.846 86.7997 238.104 90.1572 235.035C92.1717 233.212 103.012 228.607 104.067 232.445C105.218 236.665 94.1862 244.819 86.9916 241.846Z" fill="#25C16C" stroke="#263238" stroke-miterlimit="10"/>
<path d="M86.9916 241.846L97.9275 235.131" stroke="#263238" stroke-width="0.5" stroke-miterlimit="10"/>
<path d="M83.1545 226.785C83.1545 226.785 82.9626 223.044 86.3201 219.974C88.3346 218.151 99.1746 213.547 100.23 217.384C101.381 221.605 90.3491 229.759 83.1545 226.785Z" fill="#25C16C" stroke="#263238" stroke-miterlimit="10"/>
<path d="M83.1545 226.785L94.0904 220.07" stroke="#263238" stroke-width="0.5" stroke-miterlimit="10"/>
<path d="M83.634 227.264C83.634 227.264 79.8928 227.073 77.2068 223.427C75.576 221.221 72.2185 209.901 76.0557 209.326C80.3725 208.654 87.2793 220.549 83.634 227.264Z" fill="#25C16C" stroke="#263238" stroke-miterlimit="10"/>
<path d="M83.6341 227.264L78.0702 215.753" stroke="#263238" stroke-width="0.5" stroke-miterlimit="10"/>
<path d="M63.0095 158.771V373.172" stroke="#263238" stroke-width="2" stroke-miterlimit="10"/>
<path d="M63.1054 340.94L56.0067 331.635" stroke="#263238" stroke-width="2" stroke-miterlimit="10"/>
<path d="M58.2131 334.417C58.2131 334.417 58.7887 330.676 55.719 327.318C53.8963 325.304 43.536 319.644 42.0971 323.289C40.6581 327.318 50.8266 336.623 58.2131 334.417Z" fill="#25C16C" stroke="#263238" stroke-miterlimit="10"/>
<path d="M58.213 334.417L48.6201 326.934" stroke="#263238" stroke-width="0.5" stroke-miterlimit="10"/>
<path d="M63.1054 300.65L56.0067 291.345" stroke="#263238" stroke-width="2" stroke-miterlimit="10"/>
<path d="M58.2131 294.127C58.2131 294.127 58.7887 290.386 55.719 287.028C53.8963 285.014 43.536 279.354 42.0971 282.999C40.6581 287.028 50.8266 296.237 58.2131 294.127Z" fill="#25C16C" stroke="#263238" stroke-miterlimit="10"/>
<path d="M58.213 294.127L48.6201 286.644" stroke="#263238" stroke-width="0.5" stroke-miterlimit="10"/>
<path d="M63.1054 253.261L56.0067 244.052" stroke="#263238" stroke-width="2" stroke-miterlimit="10"/>
<path d="M58.2131 246.834C58.2131 246.834 58.7887 243.093 55.719 239.735C53.8963 237.721 43.536 232.061 42.0971 235.706C40.6581 239.735 50.8266 248.944 58.2131 246.834Z" fill="#25C16C" stroke="#263238" stroke-miterlimit="10"/>
<path d="M58.213 246.834L48.6201 239.351" stroke="#263238" stroke-width="0.5" stroke-miterlimit="10"/>
<path d="M63.1054 221.796L56.0067 212.587" stroke="#263238" stroke-width="2" stroke-miterlimit="10"/>
<path d="M58.2131 215.369C58.2131 215.369 58.7887 211.628 55.719 208.27C53.8963 206.256 43.536 200.596 42.0971 204.241C40.6581 208.27 50.8266 217.48 58.2131 215.369Z" fill="#25C16C" stroke="#263238" stroke-miterlimit="10"/>
<path d="M58.213 215.369L48.6201 207.887" stroke="#263238" stroke-width="0.5" stroke-miterlimit="10"/>
<path d="M63.1054 190.14L56.0067 180.931" stroke="#263238" stroke-width="2" stroke-miterlimit="10"/>
<path d="M58.2131 183.713C58.2131 183.713 58.7887 179.971 55.719 176.614C53.8963 174.599 43.536 168.94 42.0971 172.585C40.6581 176.614 50.8266 185.823 58.2131 183.713Z" fill="#25C16C" stroke="#263238" stroke-miterlimit="10"/>
<path d="M58.213 183.713L48.6201 176.23" stroke="#263238" stroke-width="0.5" stroke-miterlimit="10"/>
<path d="M63.0095 353.219L70.1082 343.914" stroke="#263238" stroke-width="2" stroke-miterlimit="10"/>
<path d="M67.9019 346.696C67.9019 346.696 67.3264 342.954 70.3961 339.597C72.2187 337.582 82.579 331.923 84.018 335.568C85.5528 339.597 75.2885 348.902 67.9019 346.696Z" fill="#25C16C" stroke="#263238" stroke-miterlimit="10"/>
<path d="M67.9018 346.696L78.0702 338.83" stroke="#263238" stroke-width="0.5" stroke-miterlimit="10"/>
<path d="M63.0095 289.138L70.1082 279.833" stroke="#263238" stroke-width="2" stroke-miterlimit="10"/>
<path d="M67.9019 282.615C67.9019 282.615 67.3264 278.874 70.3961 275.517C72.2187 273.502 82.579 267.842 84.018 271.488C85.5528 275.517 75.2885 284.822 67.9019 282.615Z" fill="#25C16C" stroke="#263238" stroke-miterlimit="10"/>
<path d="M67.9018 282.615L78.0702 274.749" stroke="#263238" stroke-width="0.5" stroke-miterlimit="10"/>
<path d="M63.0095 257.482L70.1082 248.273" stroke="#263238" stroke-width="2" stroke-miterlimit="10"/>
<path d="M67.9019 251.055C67.9019 251.055 67.3264 247.314 70.3961 243.956C72.2187 241.941 82.579 236.282 84.018 239.927C85.5528 243.956 75.2885 253.165 67.9019 251.055Z" fill="#25C16C" stroke="#263238" stroke-miterlimit="10"/>
<path d="M67.9018 251.055L78.0702 243.188" stroke="#263238" stroke-width="0.5" stroke-miterlimit="10"/>
<path d="M63.0095 215.657L70.1082 206.448" stroke="#263238" stroke-width="2" stroke-miterlimit="10"/>
<path d="M67.9019 209.23C67.9019 209.23 67.3264 205.488 70.3961 202.131C72.2187 200.116 82.579 194.457 84.018 198.102C85.5528 202.131 75.2885 211.34 67.9019 209.23Z" fill="#25C16C" stroke="#263238" stroke-miterlimit="10"/>
<path d="M67.9018 209.23L78.0702 201.364" stroke="#263238" stroke-width="0.5" stroke-miterlimit="10"/>
<path d="M63.0096 182.849L70.1084 173.544" stroke="#263238" stroke-width="2" stroke-miterlimit="10"/>
<path d="M67.9021 176.326C67.9021 176.326 67.3266 172.585 70.3963 169.227C72.2189 167.213 82.5792 161.553 84.0182 165.198C85.553 169.227 75.2886 178.532 67.9021 176.326Z" fill="#25C16C" stroke="#263238" stroke-miterlimit="10"/>
<path d="M67.902 176.326L78.0704 168.46" stroke="#263238" stroke-width="0.5" stroke-miterlimit="10"/>
<path d="M62.5301 161.745C62.5301 161.745 61.9545 158.004 65.0243 154.646C66.8469 152.632 77.2072 146.972 78.6462 150.617C80.181 154.646 70.0126 163.951 62.5301 161.745Z" fill="#25C16C" stroke="#263238" stroke-miterlimit="10"/>
<path d="M62.53 161.745L72.6984 153.879" stroke="#263238" stroke-width="0.5" stroke-miterlimit="10"/>
<path d="M63.1055 162.225C63.1055 162.225 59.3642 162.416 56.2945 159.059C54.4719 157.044 49.8673 146.204 53.7044 145.149C57.8294 143.998 65.9833 155.03 63.1055 162.225Z" fill="#25C16C" stroke="#263238" stroke-miterlimit="10"/>
<path d="M63.1056 162.225L56.2947 151.289" stroke="#263238" stroke-width="0.5" stroke-miterlimit="10"/>
<path d="M71.835 428.715H49.0998L46.222 371.349H74.6169L71.835 428.715Z" fill="#263238" stroke="#263238" stroke-miterlimit="10"/>
<path d="M276.931 195.704H346.959L330.651 255.755H260.623L276.931 195.704Z" fill="#7D7D7D" stroke="#263238" stroke-miterlimit="10" stroke-linecap="round" stroke-linejoin="round"/>
<path d="M278.945 197.91H343.793L328.636 253.549H263.884L278.945 197.91Z" fill="white" stroke="#263238" stroke-miterlimit="10" stroke-linecap="round" stroke-linejoin="round"/>
<path d="M330.651 252.59H232.516V255.755H330.651V252.59Z" fill="#7D7D7D" stroke="#263238" stroke-miterlimit="10" stroke-linecap="round" stroke-linejoin="round"/>
<path d="M330.651 252.59H285.564V255.755H330.651V252.59Z" fill="#595959" stroke="#263238" stroke-miterlimit="10" stroke-linecap="round" stroke-linejoin="round"/>
<path d="M206.423 260.839H201.147V428.331H206.423V260.839Z" fill="white" stroke="#263238" stroke-miterlimit="10" stroke-linecap="round" stroke-linejoin="round"/>
<path d="M196.579 428.4H201.088L201.088 260.909H196.579L196.579 428.4Z" fill="#A7A29D" stroke="#263238" stroke-miterlimit="10" stroke-linecap="round" stroke-linejoin="round"/>
<path d="M341.587 348.518H336.311V428.331H341.587V348.518Z" fill="white" stroke="#263238" stroke-miterlimit="10" stroke-linecap="round" stroke-linejoin="round"/>
<path d="M331.736 428.366H336.244V348.553H331.736V428.366Z" fill="#A7A29D" stroke="#263238" stroke-miterlimit="10" stroke-linecap="round" stroke-linejoin="round"/>
<path d="M398.089 348.518H392.813V428.331H398.089V348.518Z" fill="white" stroke="#263238" stroke-miterlimit="10" stroke-linecap="round" stroke-linejoin="round"/>
<path d="M388.223 428.366H392.732V348.553H388.223V428.366Z" fill="#A7A29D" stroke="#263238" stroke-miterlimit="10" stroke-linecap="round" stroke-linejoin="round"/>
<path d="M283.894 353.098H335.407V262.541H283.894V353.098Z" fill="#A7A29D" stroke="#263238" stroke-miterlimit="10" stroke-linecap="round" stroke-linejoin="round"/>
<path d="M403.269 262.47H335.447V353.027H403.269V262.47Z" fill="white" stroke="#263238" stroke-miterlimit="10" stroke-linecap="round" stroke-linejoin="round"/>
<path d="M335.447 262.47H284.029V266.883H335.447H403.269V262.47H335.447Z" fill="#263238" stroke="#263238" stroke-miterlimit="10" stroke-linecap="round" stroke-linejoin="round"/>
<path d="M332.282 267.65H288.346V288.755H332.282V267.65Z" fill="white" stroke="#263238" stroke-miterlimit="10" stroke-linecap="round" stroke-linejoin="round"/>
<path d="M316.165 276.284H304.558V280.313H316.165V276.284Z" fill="#263238"/>
<path d="M332.282 296.813H288.346V317.917H332.282V296.813Z" fill="white" stroke="#263238" stroke-miterlimit="10" stroke-linecap="round" stroke-linejoin="round"/>
<path d="M316.165 304.967H304.558V308.996H316.165V304.967Z" fill="#263238"/>
<path d="M332.282 325.975H288.346V347.079H332.282V325.975Z" fill="white" stroke="#263238" stroke-miterlimit="10" stroke-linecap="round" stroke-linejoin="round"/>
<path d="M316.165 333.745H304.558V337.774H316.165V333.745Z" fill="#263238"/>
<path d="M410.272 258.537H189.348V263.813H410.272V258.537Z" fill="#A7A29D" stroke="#263238" stroke-miterlimit="10" stroke-linecap="round" stroke-linejoin="round"/>
<path d="M410.272 258.537H343.601V263.813H410.272V258.537Z" fill="white" stroke="#263238" stroke-miterlimit="10" stroke-linecap="round" stroke-linejoin="round"/>
<path d="M208.054 312.161C208.054 312.161 214.673 316.766 224.362 344.873C227.623 354.274 245.85 404.733 246.809 408.282C247.768 411.831 249.687 415.956 252.565 415.956C255.443 415.956 265.995 402.526 264.748 400.895C263.501 399.265 257.361 392.933 257.361 392.933C257.361 392.933 253.716 352.068 253.14 340.556C252.469 329.045 255.155 315.135 249.015 305.926C242.972 296.621 216.112 306.214 216.112 306.214L208.054 312.161Z" fill="#FFCFAC" stroke="#263238" stroke-miterlimit="10" stroke-linecap="round" stroke-linejoin="round"/>
<path d="M260.239 392.837C260.239 392.837 257.649 394.085 258.033 396.962C258.32 399.84 261.198 403.677 261.198 403.677C261.198 403.677 255.155 408.474 251.893 408.762C248.728 409.049 245.178 409.721 245.178 410.68C245.178 411.64 247.768 413.27 249.303 416.724C250.934 420.273 254.387 425.645 255.347 426.988C256.306 428.235 256.977 429.194 260.431 428.235C263.884 427.276 271.655 420.273 275.78 417.395C279.904 414.517 292.375 412.599 294.677 410.968C296.884 409.337 303.983 399.169 300.721 397.25C297.459 395.332 296.596 397.538 292.759 398.497C288.922 399.457 277.698 398.209 271.655 396.866C265.611 395.619 263.692 395.236 263.692 395.236L260.239 392.837Z" fill="#1D588C" stroke="#263238" stroke-miterlimit="10" stroke-linecap="round" stroke-linejoin="round"/>
<path d="M254.963 426.317C255.155 426.604 255.347 426.892 255.443 427.084C256.402 428.331 257.073 429.29 260.527 428.331C263.98 427.372 271.751 420.369 275.876 417.491C280 414.613 292.471 412.695 294.773 411.064C296.98 409.433 304.079 399.265 300.817 397.346C300.241 397.058 299.762 396.866 299.378 396.675C299.474 396.866 299.474 397.058 299.57 397.346C300.529 401.183 297.364 405.02 294.486 407.898C291.608 410.776 282.015 410.105 271.463 415.573C264.076 419.314 258.033 423.918 254.963 426.317Z" fill="#6B5757" stroke="#263238" stroke-miterlimit="10" stroke-linecap="round" stroke-linejoin="round"/>
<path d="M254.675 360.893C254.004 352.451 253.332 344.585 253.14 340.556C252.469 329.045 255.155 315.135 249.015 305.926C242.972 296.621 216.112 306.214 216.112 306.214L208.054 312.161C208.054 312.161 214.673 316.766 224.362 344.873C225.609 348.422 229.062 358.015 232.899 368.759L254.675 360.893Z" fill="#263238" stroke="#263238" stroke-miterlimit="10" stroke-linecap="round" stroke-linejoin="round"/>
<path d="M239.039 148.123C239.039 148.123 240.478 151.864 240.19 155.126C239.902 158.291 237.024 159.73 236.737 158.867C236.449 158.004 236.449 155.701 236.449 154.55C236.449 153.399 236.449 153.399 236.449 153.399C236.449 153.399 235.873 154.55 233.859 156.565C231.844 158.579 230.693 158.004 229.83 158.004C228.966 158.004 228.679 155.126 230.117 153.111C231.46 151.001 236.065 146.396 239.039 148.123Z" fill="#FFCFAC" stroke="#263238" stroke-miterlimit="10" stroke-linecap="round" stroke-linejoin="round"/>
<path d="M245.658 155.605C242.78 153.879 238.367 159.922 231.748 158.483C230.885 158.292 230.597 157.044 232.036 154.167C233.475 151.289 238.175 148.986 240.478 147.164C242.78 145.437 244.507 143.998 244.507 141.984C244.507 139.969 239.327 143.135 237.792 144.286C237.12 144.861 234.722 146.013 232.324 147.26C231.94 147.26 231.556 147.26 231.077 147.356C228.487 147.547 224.554 147.931 223.019 149.274C221.004 151.001 219.949 156.853 219.469 159.155C218.222 160.978 217.071 162.704 216.4 163.759C214.385 166.925 173.423 196.855 173.423 196.855L176.301 222.372L222.731 169.611C222.731 169.611 223.882 168.46 227.048 167.309C230.213 166.158 234.626 165.294 238.367 163.28C242.108 161.265 242.396 160.978 246.521 158.387C248.536 156.949 247.289 156.565 245.658 155.605Z" fill="#FFCFAC" stroke="#263238" stroke-miterlimit="10" stroke-linecap="round" stroke-linejoin="round"/>
<path d="M196.926 179.396C185.606 187.934 173.519 196.759 173.519 196.759L176.397 222.276L204.888 189.852L196.926 179.396Z" fill="#1D588C" stroke="#263238" stroke-miterlimit="10" stroke-linecap="round" stroke-linejoin="round"/>
<path d="M182.633 275.996C182.633 275.996 203.065 275.037 232.803 279.833C262.541 284.63 273.669 289.714 272.806 295.47C269.16 318.78 214.673 395.715 214.673 395.715L215.632 406.555C215.632 406.555 213.714 409.145 206.999 409.433C200.283 409.721 191.938 400.128 191.938 400.128C191.938 400.128 199.42 392.358 202.298 383.053C205.176 373.748 228.295 313.984 228.295 313.984C228.295 313.984 197.885 320.699 164.31 314.655C130.831 308.612 182.633 275.996 182.633 275.996Z" fill="#FFCFAC" stroke="#263238" stroke-miterlimit="10" stroke-linecap="round" stroke-linejoin="round"/>
<path d="M232.804 279.833C203.066 275.037 182.633 275.996 182.633 275.996C182.633 275.996 130.831 308.612 164.406 314.655C197.981 320.699 228.391 313.984 228.391 313.984C228.391 313.984 218.798 338.925 211.124 359.07L233.667 367.704C249.783 343.242 270.599 309.571 272.806 295.374C273.669 289.714 262.541 284.63 232.804 279.833Z" fill="#263238" stroke="#263238" stroke-miterlimit="10" stroke-linecap="round" stroke-linejoin="round"/>
<path d="M214.673 395.715C214.673 395.715 212.754 396.387 211.795 398.593C210.836 400.799 210.164 403.102 210.164 403.102C210.164 403.102 204.121 401.855 199.9 399.936C195.775 398.018 192.897 396.099 192.897 396.099C192.897 396.099 190.019 396.387 190.019 398.305C190.019 400.224 189.731 403.773 188.388 406.939C187.525 408.953 185.798 413.558 184.647 416.532C184.072 418.067 184.935 419.697 186.566 419.985C191.65 421.136 202.298 423.535 211.411 426.412C223.882 430.25 237.6 428.331 239.231 428.043C240.861 427.756 247.193 423.918 244.315 421.328C241.437 418.738 224.458 412.023 221.004 407.61C217.551 403.006 214.673 395.715 214.673 395.715Z" fill="#1D588C" stroke="#263238" stroke-miterlimit="10" stroke-linecap="round" stroke-linejoin="round"/>
<path d="M243.068 420.369C243.068 423.535 241.437 426.7 236.353 426.7C231.269 426.7 222.251 426.029 209.493 420.945C199.42 416.916 189.54 414.421 185.798 413.654C185.415 414.709 185.031 415.668 184.647 416.532C184.072 418.067 184.935 419.697 186.566 419.985C191.65 421.136 202.298 423.535 211.411 426.412C223.882 430.25 237.6 428.331 239.231 428.043C240.861 427.755 247.193 423.918 244.315 421.328C244.123 421.04 243.643 420.753 243.068 420.369Z" fill="#6B5757" stroke="#263238" stroke-miterlimit="10" stroke-linecap="round" stroke-linejoin="round"/>
<path d="M117.977 201.459C117.977 201.459 114.523 228.991 114.811 234.267C115.099 239.447 118.84 284.438 119.703 294.319C120.567 304.199 124.596 312.929 131.886 314.655C139.177 316.382 157.979 318.972 166.133 316.958C174.287 314.943 182.92 296.621 185.894 289.714C188.772 282.711 190.787 278.394 189.923 276.955C189.06 275.516 185.319 272.351 185.319 272.351C185.319 272.351 178.028 219.59 176.301 205.872C174.575 192.25 175.438 191.099 169.011 185.823C162.679 180.547 129.584 176.23 117.977 201.459Z" fill="#1D588C" stroke="#263238" stroke-miterlimit="10" stroke-linecap="round" stroke-linejoin="round"/>
<path d="M164.406 297.676C163.351 298.443 162.296 299.211 161.145 299.978" stroke="#263238" stroke-miterlimit="10" stroke-linecap="round" stroke-linejoin="round"/>
<path d="M183.592 274.365C183.592 274.365 177.453 286.452 167.188 295.374" stroke="#263238" stroke-miterlimit="10" stroke-linecap="round" stroke-linejoin="round"/>
<path d="M179.083 275.037C179.083 275.037 169.203 284.342 159.226 290.098" stroke="#263238" stroke-miterlimit="10" stroke-linecap="round" stroke-linejoin="round"/>
<path d="M187.045 114.74C187.045 114.74 189.923 120.879 190.787 125.196C191.65 129.513 191.938 133.638 193.952 134.501C195.967 135.364 199.708 135.652 199.132 137.955C198.557 140.257 194.816 144.094 194.816 144.094C194.816 144.094 195.679 158.004 195.391 160.594C195.103 163.184 179.755 163.184 178.891 163.184C178.028 163.184 169.299 183.809 169.299 183.809L144.933 171.626L149.537 156.565C149.537 156.565 141.959 142.079 141.383 135.652C140.808 129.225 155.581 117.618 164.022 115.028C172.56 112.437 187.045 114.74 187.045 114.74Z" fill="#FFCFAC" stroke="#263238" stroke-miterlimit="10" stroke-linecap="round" stroke-linejoin="round"/>
<path d="M178.987 163.184L171.217 160.977L174.095 172.297L178.987 163.184Z" fill="#263238" stroke="#263238" stroke-miterlimit="10" stroke-linecap="round" stroke-linejoin="round"/>
<path d="M189.923 131.144C190.307 132.774 190.115 134.213 189.54 134.405C188.964 134.597 188.101 133.35 187.717 131.719C187.333 130.088 187.525 128.649 188.101 128.458C188.772 128.266 189.54 129.513 189.923 131.144Z" fill="#263238"/>
<path d="M185.031 146.684C185.031 146.684 188.485 149.274 191.746 148.123" stroke="#263238" stroke-miterlimit="10" stroke-linecap="round" stroke-linejoin="round"/>
<path d="M185.606 109.176C185.606 109.176 189.635 116.467 186.758 121.071C183.88 125.676 176.877 127.786 173.136 132.103C169.394 136.42 167.38 143.998 165.845 144.574C164.406 145.149 160.089 136.42 157.403 136.995C154.813 137.571 150.401 143.71 154.238 150.042C157.979 156.469 164.694 155.51 164.694 155.51C164.694 155.51 154.238 160.978 152.223 160.978C150.209 160.978 144.069 157.524 141.191 154.263C138.314 151.097 127.857 141.504 127.282 133.638C126.706 125.772 137.162 115.987 137.162 115.987C137.162 115.987 124.692 115.124 127.857 110.519C131.023 105.914 142.343 102.941 142.343 102.941C142.343 102.941 140.328 95.65 143.206 94.2111C146.084 92.7722 163.831 98.5279 163.831 98.5279C163.831 98.5279 158.938 92.1007 165.845 91.8129C172.848 91.8129 184.743 100.542 185.606 109.176Z" fill="#263238" stroke="#263238" stroke-miterlimit="10" stroke-linecap="round" stroke-linejoin="round"/>
<path d="M162.488 140.737L199.516 125.772" stroke="#263238" stroke-miterlimit="10" stroke-linecap="round" stroke-linejoin="round"/>
<path d="M189.923 123.661C190.691 123.373 191.554 123.182 192.417 123.182C196.063 123.182 198.941 126.06 198.941 129.705C198.941 132.103 197.598 134.309 195.583 135.365" stroke="#263238" stroke-miterlimit="10" stroke-linecap="round" stroke-linejoin="round"/>
<path d="M176.301 191.867C176.301 191.867 176.014 183.425 173.711 181.123C171.409 178.82 154.238 169.227 146.468 167.213C138.601 165.198 130.543 168.076 125.267 169.803C120.087 171.53 116.538 176.518 114.523 187.166C112.509 197.91 112.221 204.529 116.538 205.201C120.855 205.776 126.994 192.73 140.616 190.14C154.238 187.55 166.709 189.852 169.586 191.291C172.56 192.826 176.301 191.867 176.301 191.867Z" fill="#1D588C" stroke="#263238" stroke-miterlimit="10" stroke-linecap="round" stroke-linejoin="round"/>
<path d="M132.27 183.041C129.68 184 127.857 184.672 127.857 184.672" stroke="#263238" stroke-miterlimit="10" stroke-linecap="round" stroke-linejoin="round"/>
<path d="M176.301 191.867C176.301 191.867 157.979 181.698 151.36 179.684C147.906 178.628 141.575 179.971 136.395 181.602" stroke="#263238" stroke-miterlimit="10" stroke-linecap="round" stroke-linejoin="round"/>
<path d="M262.445 239.064C262.445 239.064 261.486 245.107 260.335 245.779C259.184 246.45 259.28 240.215 259.28 240.215C259.28 240.215 257.937 243.86 257.073 244.723C256.21 245.587 256.69 240.982 256.69 240.982L257.649 236.665L262.445 239.064Z" fill="#FFCFAC" stroke="#263238" stroke-miterlimit="10" stroke-linecap="round" stroke-linejoin="round"/>
<path d="M250.167 233.116L259.088 233.308C259.088 233.308 261.486 233.692 261.774 235.035C262.158 236.378 263.501 239.447 263.501 239.447L249.687 235.418L250.167 233.116Z" fill="#FFCFAC" stroke="#263238" stroke-miterlimit="10" stroke-linecap="round" stroke-linejoin="round"/>
<path d="M253.428 235.898C253.428 235.898 265.899 234.171 266.187 235.226C266.474 235.994 267.434 242.805 267.625 245.011C267.625 245.395 267.242 245.491 266.954 245.299L263.501 239.255L254.1 239.927C254.1 239.927 251.414 237.625 253.428 235.898Z" fill="#FFCFAC" stroke="#263238" stroke-miterlimit="10" stroke-linecap="round" stroke-linejoin="round"/>
<path d="M150.305 198.294C150.305 198.294 142.534 204.049 145.22 218.151C147.906 232.253 166.708 270.912 168.435 274.269C170.162 277.627 177.548 278.011 180.906 276.955C184.263 275.9 244.027 252.11 244.027 252.11C244.027 252.11 250.454 250.383 251.414 249.04C252.469 247.697 258.8 240.598 258.8 240.598C258.8 240.598 268.873 241.941 271.271 241.27C273.669 240.598 268.873 239.927 266.57 239.255C264.748 238.776 254.771 234.843 250.262 233.02C248.919 232.54 247.48 232.828 246.425 233.883C243.26 237.145 236.545 243.956 235.297 245.011C233.571 246.354 186.278 254.412 186.278 254.412C186.278 254.412 175.15 202.323 170.833 198.006C166.421 193.593 158.746 194.648 158.746 194.648" fill="#1D588C"/>
<path d="M150.305 198.294C150.305 198.294 142.534 204.049 145.22 218.151C147.906 232.253 166.708 270.912 168.435 274.269C170.162 277.627 177.548 278.011 180.906 276.955C184.263 275.9 244.027 252.11 244.027 252.11C244.027 252.11 250.454 250.383 251.414 249.04C252.469 247.697 258.8 240.598 258.8 240.598C258.8 240.598 268.873 241.941 271.271 241.27C273.669 240.598 268.873 239.927 266.57 239.255C264.748 238.776 254.771 234.843 250.262 233.02C248.919 232.54 247.48 232.828 246.425 233.883C243.26 237.145 236.545 243.956 235.297 245.011C233.571 246.354 186.278 254.412 186.278 254.412C186.278 254.412 175.15 202.323 170.833 198.006C166.421 193.593 158.746 194.648 158.746 194.648" stroke="#263238" stroke-miterlimit="10" stroke-linecap="round" stroke-linejoin="round"/>
<path d="M212.754 264.485C228.391 258.249 244.027 252.11 244.027 252.11C244.027 252.11 250.454 250.383 251.414 249.04C252.469 247.697 258.8 240.598 258.8 240.598C258.8 240.598 268.873 241.941 271.271 241.27C273.669 240.598 268.873 239.927 266.57 239.255C264.748 238.776 254.771 234.843 250.262 233.02C248.919 232.54 247.48 232.828 246.425 233.883C243.26 237.145 236.545 243.956 235.297 245.011C234.434 245.683 221.196 248.273 208.725 250.479L212.754 264.485Z" fill="#FFCFAC" stroke="#263238" stroke-miterlimit="10" stroke-linecap="round" stroke-linejoin="round"/>
<path d="M107.808 330.58L93.1311 427.755C92.9392 428.715 94.3781 429.098 94.6659 428.139L116.73 332.114L107.808 330.58Z" fill="#9C9C9C" stroke="#263238" stroke-miterlimit="10" stroke-linecap="round" stroke-linejoin="round"/>
<path d="M129.584 331.155L135.915 427.564C136.011 428.523 137.45 428.523 137.546 427.564L138.697 330.388L129.584 331.155Z" fill="#9C9C9C" stroke="#263238" stroke-miterlimit="10" stroke-linecap="round" stroke-linejoin="round"/>
<path d="M151.072 332.69L168.531 427.372C168.723 428.331 170.162 428.139 170.066 427.084L159.898 330.58L151.072 332.69Z" fill="#9C9C9C" stroke="#263238" stroke-miterlimit="10" stroke-linecap="round" stroke-linejoin="round"/>
<path d="M184.839 331.827L199.132 427.18C199.324 428.139 200.763 427.947 200.667 426.988L193.76 330.1L184.839 331.827Z" fill="#9C9C9C" stroke="#263238" stroke-miterlimit="10" stroke-linecap="round" stroke-linejoin="round"/>
<path d="M171.217 312.449C171.217 312.449 154.43 306.885 146.564 286.74C138.697 266.595 125.843 231.869 116.922 227.456C108 222.947 90.6371 231.389 89.4859 263.813C88.3348 296.237 91.0208 320.411 98.2154 328.373C104.643 335.376 115.483 344.393 153.183 344.969C186.854 345.544 200.667 332.69 205.272 328.373C210.068 323.865 217.551 314.751 211.411 314.751C205.368 314.655 178.987 314.655 171.217 312.449Z" fill="white" stroke="#263238" stroke-miterlimit="10" stroke-linecap="round" stroke-linejoin="round"/>
<path d="M248.728 113.205C248.728 113.205 242.205 105.531 233.091 104.092C223.978 102.653 223.403 115.891 235.01 121.743C239.998 124.237 245.466 123.374 245.466 123.374C245.466 123.374 236.161 134.405 242.205 136.132C255.731 140.065 252.757 119.345 252.757 119.345L248.728 113.205Z" fill="white" stroke="#263238" stroke-miterlimit="10" stroke-linecap="round" stroke-linejoin="round"/>
<path d="M250.934 112.725C250.934 112.725 247.097 103.42 249.975 94.5949C252.853 85.7694 264.268 91.8129 264.172 104.763C264.076 110.327 261.582 114.356 261.582 114.356C261.582 114.356 276.259 111.286 274.437 117.234C270.312 130.856 254.675 119.057 254.675 119.057L250.934 112.725Z" fill="white" stroke="#263238" stroke-miterlimit="10" stroke-linecap="round" stroke-linejoin="round"/>
<path d="M256.018 124.333C255.731 124.333 255.347 124.141 255.155 123.853L246.042 108.6C245.754 108.121 245.946 107.545 246.33 107.257C246.809 106.97 247.385 107.162 247.673 107.545L256.786 122.798C257.074 123.278 256.882 123.853 256.498 124.141C256.402 124.237 256.21 124.333 256.018 124.333Z" fill="#263238"/>
<path d="M247.673 109.848C247.673 109.848 244.411 102.941 238.559 102.173" stroke="#263238" stroke-miterlimit="10" stroke-linecap="round" stroke-linejoin="round"/>
<path d="M247.769 107.545C247.769 107.545 245.85 101.885 247.289 98.2401" stroke="#263238" stroke-miterlimit="10" stroke-linecap="round" stroke-linejoin="round"/>
<path d="M241.917 114.068C241.533 115.795 239.039 116.659 236.257 116.083C233.475 115.507 231.557 113.685 231.844 111.958C232.228 110.231 234.722 109.368 237.504 109.944C240.286 110.519 242.301 112.342 241.917 114.068Z" fill="#E7692C" stroke="#263238" stroke-miterlimit="10" stroke-linecap="round" stroke-linejoin="round"/>
<path d="M248.728 125.964C249.687 126.635 249.687 128.458 248.632 129.993C247.577 131.623 245.946 132.391 244.987 131.719C244.027 131.048 244.027 129.225 245.083 127.69C246.138 126.06 247.769 125.292 248.728 125.964Z" fill="#E7692C" stroke="#263238" stroke-miterlimit="10" stroke-linecap="round" stroke-linejoin="round"/>
<path d="M268.777 117.906C268.777 119.057 267.242 120.016 265.324 120.112C263.405 120.112 261.87 119.249 261.87 118.001C261.87 116.754 263.405 115.891 265.324 115.795C267.146 115.795 268.777 116.754 268.777 117.906Z" fill="#E7692C" stroke="#263238" stroke-miterlimit="10" stroke-linecap="round" stroke-linejoin="round"/>
<path d="M256.882 107.929C255.155 108.121 253.524 106.01 253.237 103.228C252.949 100.446 254.1 98.0482 255.827 97.8564C257.553 97.6645 259.184 99.7749 259.472 102.557C259.76 105.243 258.609 107.737 256.882 107.929Z" fill="#E7692C" stroke="#263238" stroke-miterlimit="10" stroke-linecap="round" stroke-linejoin="round"/>
<path d="M6.21973 428.715H453.056" stroke="#263238" stroke-miterlimit="10" stroke-linecap="round" stroke-linejoin="round"/>
</svg>
